<svg viewBox="0 0 38 24" xmlns="http://www.w3.org/2000/svg" role="img" width="38" height="24" aria-labelledby="pi-american_express">
  <title id="pi-american_express">American Express</title>
  <g fill="none">
    <path fill="#000" d="M35 0H3C1.3 0 0 1.3 0 3v18c0 1.7 1.4 3 3 3h32c1.7 0 3-1.3 3-3V3c0-1.7-1.4-3-3-3z" opacity=".07"/>
    <path fill="#006FCF" d="M35 1c1.1 0 2 .9 2 2v18c0 1.1-.9 2-2 2H3c-1.1 0-2-.9-2-2V3c0-1.1.9-2 2-2h32"/>
    <path fill="#FFF" d="M20.4 12.5h-2.6v-6h2.7c1.4 0 2.6 1.2 2.6 3s-1.3 3-2.7 3zm.4-8h-5.5v12h5.5c2.7 0 4.9-2.2 4.9-6 0-3.7-2.2-6-4.9-6zm-10.2 8h-3.4l1.7-4 1.7 4zm-4.4 4h3l.9-2h5l.9 2h3l-5.2-12h-2.5l-5.1 12z"/>
  </g>
</svg>
