<svg viewBox="0 0 38 24" xmlns="http://www.w3.org/2000/svg" role="img" width="38" height="24" aria-labelledby="pi-apple_pay">
  <title id="pi-apple_pay">Apple Pay</title>
  <path opacity=".07" d="M35 0H3C1.3 0 0 1.3 0 3v18c0 1.7 1.4 3 3 3h32c1.7 0 3-1.3 3-3V3c0-1.7-1.4-3-3-3z"/>
  <path fill="#fff" d="M35 1c1.1 0 2 .9 2 2v18c0 1.1-.9 2-2 2H3c-1.1 0-2-.9-2-2V3c0-1.1.9-2 2-2h32"/>
  <path d="M9.17 7c-.12-.63-.65-1.12-1.3-1.12-.67 0-1.22.53-1.22 1.19 0 .56.42 1.01.94 1.11-.6.03-.93.38-.93.84 0 .53.4.92.97.92.6 0 1.09-.41 1.19-.92H8.1c-.06.25-.27.43-.52.43-.3 0-.51-.2-.51-.48s.21-.5.52-.5h.05v-.32c-.13-.1-.24-.25-.26-.43h.66zm.07-.51h-.63c.04-.24.24-.41.48-.47l.16.97zm-.52 1.96a.4.4 0 01.4-.39.38.38 0 01.37.39.4.4 0 01-.78 0h.01zm5.22-1.08c0-1.14-.71-1.9-1.77-1.9-1.06 0-1.78.77-1.78 1.9s.71 1.9 1.78 1.9c1.06 0 1.77-.76 1.77-1.9zm-2.92 0c0-.71.4-1.31.96-1.5l.19 1.16c.03.14.13.31.25.47.17.2.46.51.91.51.43 0 .86-.19 1.14-.52.02-.02.07-.1.07-.13v-.27c0-.04-.08-.36-.08-.38l.37-2.02c.1.02.36.08.37.08.09.19.31.61.31.65v1.41c0 .84-.68 1.54-1.53 1.54-.85 0-1.53-.69-1.53-1.53l.55-.97h-.03v.2c0 .6-.52 1.08-1.15 1.08s-1.15-.49-1.15-1.08c0-.28.12-.54.3-.73zm1.06.01c0 .33-.25.59-.58.59-.33 0-.57-.26-.57-.59s.24-.58.57-.58c.33 0 .58.25.58.58zm5.39.61a.48.48 0 01-.48.48h-.12v.15c0 .34-.27.61-.6.61h-.33a.6.6 0 01-.6-.61v-.13l-.12-.02a.48.48 0 01-.36-.47v-.07c0-.25.2-.46.48-.46h.14v-.14c0-.35.27-.62.6-.62h.33c.33 0 .6.27.6.62v.13c.17.03.32.18.32.36v.17h.14zm-.62-.32h-.31v.27h.31v-.27zm-.43-.44h-.32v.28h.32v-.28zm0 .44h-.32v.27h.32v-.27zm1.53-.7v2.62c0 .84-.68 1.53-1.53 1.53-.54 0-1.03-.29-1.29-.72.26-.22.43-.55.43-.92 0-.29-.11-.56-.28-.78a.98.98 0 01-.17-.58c0-.59.35-1.09.87-1.27a1.1 1.1 0 00.69.98l.21-1.04c.09.02.34.08.34.08.19.38.33.64.33.69v.34c0 .08-.06.15-.15.15h-.14c-.12 0-.22-.08-.25-.2h-.53c.23.64.82 1.08 1.51 1.08.88 0 1.6-.7 1.6-1.57 0-.87-.72-1.57-1.6-1.57-1 0-1.82.8-1.82 1.8 0 .15.03.3.06.43.15-.06.3-.1.47-.1.33 0 .62.12.84.32.22-.22.38-.51.38-.84 0-.53-.37-.98-.89-1.04V8.3c.76.11 1.35.74 1.35 1.52a1.5 1.5 0 01-1.35 1.49V10.1c0-.04-.08-.36-.08-.38l.37-2.02c.06.01.26.06.33.08.09.18.26.53.29.58v1.22zm2.38.63c0-1.14-.71-1.9-1.77-1.9-1.06 0-1.78.77-1.78 1.9s.71 1.9 1.78 1.9c1.06 0 1.77-.76 1.77-1.9zm-2.92 0c0-.71.4-1.31.96-1.5l.19 1.16c.03.14.13.31.25.47.17.2.46.51.91.51.43 0 .86-.19 1.14-.52.02-.02.07-.1.07-.13v-.27c0-.04-.08-.36-.08-.38l.37-2.02c.1.02.36.08.37.08.09.19.31.61.31.65v1.41c0 .84-.68 1.54-1.53 1.54-.85 0-1.53-.69-1.53-1.53l.55-.97h-.03v.2c0 .6-.52 1.08-1.15 1.08s-1.15-.49-1.15-1.08c0-.28.12-.54.3-.73zm1.06.01c0 .33-.25.59-.58.59-.33 0-.57-.26-.57-.59s.24-.58.57-.58c.33 0 .58.25.58.58zm7.5.69c0 .69-.56 1.24-1.25 1.24h-1.22v-3.3h.83v1.29h.38c.7 0 1.26.56 1.26 1.25v-.48zm-.6 0c0-.36-.29-.65-.65-.65h-.39v1.29h.4c.35 0 .64-.29.64-.64zm4.62 0c0 .69-.56 1.24-1.25 1.24h-1.22v-3.3h.83v1.29h.38c.7 0 1.26.56 1.26 1.25v-.48zm-.6 0c0-.36-.29-.65-.65-.65h-.39v1.29h.4c.35 0 .64-.29.64-.64zm1.98.07c0-.68.56-1.24 1.25-1.24h.12c.7 0 1.26.56 1.26 1.24 0 .69-.56 1.25-1.26 1.25h-.12c-.69 0-1.25-.56-1.25-1.25zm1.75 0c0-.35-.3-.64-.65-.64h-.1c-.36 0-.65.29-.65.64 0 .36.29.65.65.65h.1c.36 0 .65-.29.65-.65zm1.48.68h.38l.23-.66h1.1l.22.66h.39l-1.07-3.25h-.16l-1.09 3.25zm.78-1.05l.46-1.38.45 1.38h-.91z" fill="#000"/>
</svg>
