<svg width="300" height="200" viewBox="0 0 300 200" xmlns="http://www.w3.org/2000/svg">
  <!-- Background -->
  <rect width="300" height="200" fill="#f9fafb" />
  
  <!-- Memorial Plaque -->
  <rect x="50" y="30" width="200" height="140" rx="5" fill="#4b5563" />
  <rect x="60" y="40" width="180" height="120" rx="3" fill="#6b7280" />
  
  <!-- Memorial Text -->
  <text x="150" y="70" font-family="Arial" font-size="14" font-weight="bold" text-anchor="middle" fill="white">In Loving Memory</text>
  <text x="150" y="90" font-family="Arial" font-size="12" text-anchor="middle" fill="white">John Smith</text>
  <text x="150" y="110" font-family="Arial" font-size="10" text-anchor="middle" fill="white">1945 - 2023</text>
  
  <!-- QR Code -->
  <rect x="115" y="120" width="70" height="70" rx="5" fill="white" transform="scale(0.5) translate(150, 140)" />
  
  <!-- QR Code Pattern (simplified) -->
  <!-- Position Detection Patterns (corners) -->
  <!-- Top-left -->
  <rect x="120" y="125" width="15" height="15" fill="#000000" transform="scale(0.5) translate(150, 140)" />
  <rect x="125" y="130" width="5" height="5" fill="white" transform="scale(0.5) translate(150, 140)" />
  
  <!-- Top-right -->
  <rect x="165" y="125" width="15" height="15" fill="#000000" transform="scale(0.5) translate(150, 140)" />
  <rect x="170" y="130" width="5" height="5" fill="white" transform="scale(0.5) translate(150, 140)" />
  
  <!-- Bottom-left -->
  <rect x="120" y="170" width="15" height="15" fill="#000000" transform="scale(0.5) translate(150, 140)" />
  <rect x="125" y="175" width="5" height="5" fill="white" transform="scale(0.5) translate(150, 140)" />
  
  <!-- QR Code Data (simplified pattern) -->
  <rect x="140" y="125" width="5" height="5" fill="#000000" transform="scale(0.5) translate(150, 140)" />
  <rect x="150" y="125" width="5" height="5" fill="#000000" transform="scale(0.5) translate(150, 140)" />
  
  <rect x="120" y="140" width="5" height="5" fill="#000000" transform="scale(0.5) translate(150, 140)" />
  <rect x="130" y="140" width="5" height="5" fill="#000000" transform="scale(0.5) translate(150, 140)" />
  <rect x="145" y="140" width="5" height="5" fill="#000000" transform="scale(0.5) translate(150, 140)" />
  <rect x="155" y="140" width="5" height="5" fill="#000000" transform="scale(0.5) translate(150, 140)" />
  <rect x="165" y="140" width="5" height="5" fill="#000000" transform="scale(0.5) translate(150, 140)" />
  
  <rect x="125" y="145" width="5" height="5" fill="#000000" transform="scale(0.5) translate(150, 140)" />
  <rect x="135" y="145" width="5" height="5" fill="#000000" transform="scale(0.5) translate(150, 140)" />
  <rect x="150" y="145" width="5" height="5" fill="#000000" transform="scale(0.5) translate(150, 140)" />
  <rect x="160" y="145" width="5" height="5" fill="#000000" transform="scale(0.5) translate(150, 140)" />
  <rect x="170" y="145" width="5" height="5" fill="#000000" transform="scale(0.5) translate(150, 140)" />
  
  <rect x="130" y="150" width="5" height="5" fill="#000000" transform="scale(0.5) translate(150, 140)" />
  <rect x="140" y="150" width="5" height="5" fill="#000000" transform="scale(0.5) translate(150, 140)" />
  <rect x="155" y="150" width="5" height="5" fill="#000000" transform="scale(0.5) translate(150, 140)" />
  <rect x="165" y="150" width="5" height="5" fill="#000000" transform="scale(0.5) translate(150, 140)" />
  
  <rect x="120" y="155" width="5" height="5" fill="#000000" transform="scale(0.5) translate(150, 140)" />
  <rect x="135" y="155" width="5" height="5" fill="#000000" transform="scale(0.5) translate(150, 140)" />
  <rect x="145" y="155" width="5" height="5" fill="#000000" transform="scale(0.5) translate(150, 140)" />
  <rect x="160" y="155" width="5" height="5" fill="#000000" transform="scale(0.5) translate(150, 140)" />
  <rect x="170" y="155" width="5" height="5" fill="#000000" transform="scale(0.5) translate(150, 140)" />
  
  <rect x="125" y="160" width="5" height="5" fill="#000000" transform="scale(0.5) translate(150, 140)" />
  <rect x="140" y="160" width="5" height="5" fill="#000000" transform="scale(0.5) translate(150, 140)" />
  <rect x="150" y="160" width="5" height="5" fill="#000000" transform="scale(0.5) translate(150, 140)" />
  <rect x="165" y="160" width="5" height="5" fill="#000000" transform="scale(0.5) translate(150, 140)" />
  
  <rect x="140" y="170" width="5" height="5" fill="#000000" transform="scale(0.5) translate(150, 140)" />
  <rect x="150" y="170" width="5" height="5" fill="#000000" transform="scale(0.5) translate(150, 140)" />
  <rect x="160" y="170" width="5" height="5" fill="#000000" transform="scale(0.5) translate(150, 140)" />
  <rect x="170" y="170" width="5" height="5" fill="#000000" transform="scale(0.5) translate(150, 140)" />
  
  <!-- Plaque Stand -->
  <path d="M100 170 L80 190 L220 190 L200 170" fill="#374151" />
</svg>
