<svg width="200" height="200" viewBox="0 0 200 200" xmlns="http://www.w3.org/2000/svg">
  <rect width="200" height="200" fill="white" />
  
  <!-- QR Code Pattern (simplified) -->
  <!-- Position Detection Patterns (corners) -->
  <!-- Top-left -->
  <rect x="20" y="20" width="40" height="40" fill="#000000" />
  <rect x="30" y="30" width="20" height="20" fill="white" />
  <rect x="35" y="35" width="10" height="10" fill="#000000" />
  
  <!-- Top-right -->
  <rect x="140" y="20" width="40" height="40" fill="#000000" />
  <rect x="150" y="30" width="20" height="20" fill="white" />
  <rect x="155" y="35" width="10" height="10" fill="#000000" />
  
  <!-- Bottom-left -->
  <rect x="20" y="140" width="40" height="40" fill="#000000" />
  <rect x="30" y="150" width="20" height="20" fill="white" />
  <rect x="35" y="155" width="10" height="10" fill="#000000" />
  
  <!-- QR Code Data (simplified pattern) -->
  <rect x="70" y="20" width="10" height="10" fill="#000000" />
  <rect x="90" y="20" width="10" height="10" fill="#000000" />
  <rect x="110" y="20" width="10" height="10" fill="#000000" />
  <rect x="120" y="20" width="10" height="10" fill="#000000" />
  
  <rect x="20" y="70" width="10" height="10" fill="#000000" />
  <rect x="40" y="70" width="10" height="10" fill="#000000" />
  <rect x="60" y="70" width="10" height="10" fill="#000000" />
  <rect x="90" y="70" width="10" height="10" fill="#000000" />
  <rect x="110" y="70" width="10" height="10" fill="#000000" />
  <rect x="130" y="70" width="10" height="10" fill="#000000" />
  <rect x="170" y="70" width="10" height="10" fill="#000000" />
  
  <rect x="20" y="80" width="10" height="10" fill="#000000" />
  <rect x="50" y="80" width="10" height="10" fill="#000000" />
  <rect x="70" y="80" width="10" height="10" fill="#000000" />
  <rect x="100" y="80" width="10" height="10" fill="#000000" />
  <rect x="120" y="80" width="10" height="10" fill="#000000" />
  <rect x="150" y="80" width="10" height="10" fill="#000000" />
  <rect x="170" y="80" width="10" height="10" fill="#000000" />
  
  <rect x="30" y="90" width="10" height="10" fill="#000000" />
  <rect x="60" y="90" width="10" height="10" fill="#000000" />
  <rect x="80" y="90" width="10" height="10" fill="#000000" />
  <rect x="110" y="90" width="10" height="10" fill="#000000" />
  <rect x="130" y="90" width="10" height="10" fill="#000000" />
  <rect x="160" y="90" width="10" height="10" fill="#000000" />
  
  <rect x="40" y="100" width="10" height="10" fill="#000000" />
  <rect x="70" y="100" width="10" height="10" fill="#000000" />
  <rect x="90" y="100" width="10" height="10" fill="#000000" />
  <rect x="120" y="100" width="10" height="10" fill="#000000" />
  <rect x="140" y="100" width="10" height="10" fill="#000000" />
  <rect x="170" y="100" width="10" height="10" fill="#000000" />
  
  <rect x="20" y="110" width="10" height="10" fill="#000000" />
  <rect x="50" y="110" width="10" height="10" fill="#000000" />
  <rect x="80" y="110" width="10" height="10" fill="#000000" />
  <rect x="100" y="110" width="10" height="10" fill="#000000" />
  <rect x="130" y="110" width="10" height="10" fill="#000000" />
  <rect x="150" y="110" width="10" height="10" fill="#000000" />
  
  <rect x="30" y="120" width="10" height="10" fill="#000000" />
  <rect x="60" y="120" width="10" height="10" fill="#000000" />
  <rect x="90" y="120" width="10" height="10" fill="#000000" />
  <rect x="110" y="120" width="10" height="10" fill="#000000" />
  <rect x="140" y="120" width="10" height="10" fill="#000000" />
  <rect x="160" y="120" width="10" height="10" fill="#000000" />
  
  <rect x="70" y="140" width="10" height="10" fill="#000000" />
  <rect x="90" y="140" width="10" height="10" fill="#000000" />
  <rect x="110" y="140" width="10" height="10" fill="#000000" />
  <rect x="130" y="140" width="10" height="10" fill="#000000" />
  <rect x="150" y="140" width="10" height="10" fill="#000000" />
  <rect x="170" y="140" width="10" height="10" fill="#000000" />
  
  <rect x="70" y="150" width="10" height="10" fill="#000000" />
  <rect x="100" y="150" width="10" height="10" fill="#000000" />
  <rect x="120" y="150" width="10" height="10" fill="#000000" />
  <rect x="140" y="150" width="10" height="10" fill="#000000" />
  <rect x="160" y="150" width="10" height="10" fill="#000000" />
  
  <rect x="70" y="160" width="10" height="10" fill="#000000" />
  <rect x="90" y="160" width="10" height="10" fill="#000000" />
  <rect x="110" y="160" width="10" height="10" fill="#000000" />
  <rect x="130" y="160" width="10" height="10" fill="#000000" />
  <rect x="150" y="160" width="10" height="10" fill="#000000" />
  <rect x="170" y="160" width="10" height="10" fill="#000000" />
  
  <rect x="70" y="170" width="10" height="10" fill="#000000" />
  <rect x="100" y="170" width="10" height="10" fill="#000000" />
  <rect x="120" y="170" width="10" height="10" fill="#000000" />
  <rect x="140" y="170" width="10" height="10" fill="#000000" />
  <rect x="160" y="170" width="10" height="10" fill="#000000" />
  
  <!-- Ereve Logo in the center -->
  <circle cx="100" cy="100" r="15" fill="white" />
  <text x="100" y="105" font-family="Arial" font-size="12" font-weight="bold" text-anchor="middle" fill="#000000">E</text>
</svg>
